<?xml version="1.0" encoding="UTF-8" standalone="no"?>
<!DOCTYPE svg PUBLIC "-//W3C//DTD SVG 1.1//EN"
 "http://www.w3.org/Graphics/SVG/1.1/DTD/svg11.dtd">
<!-- Generated by graphviz version 2.34.0 (20131224.2158)
 -->
<!-- Title: 2PC Naive Pages: 1 -->
<svg width="882pt" height="179pt"
 viewBox="0.00 0.00 882.00 179.35" xmlns="http://www.w3.org/2000/svg" xmlns:xlink="http://www.w3.org/1999/xlink">
<g id="graph0" class="graph" transform="scale(1 1) rotate(0) translate(4 175.347)">
<title>2PC Naive</title>
<polygon fill="white" stroke="white" points="-4,4 -4,-175.347 878,-175.347 878,4 -4,4"/>
<!-- b1 -->
<g id="node1" class="node"><title>b1</title>
<ellipse fill="none" stroke="black" cx="268" cy="-65.3471" rx="36.096" ry="18"/>
<text text-anchor="middle" x="268" y="-61.6471" font-family="Times,serif" font-size="14.00">Bank 1</text>
</g>
<!-- c -->
<g id="node5" class="node"><title>c</title>
<ellipse fill="none" stroke="black" cx="542" cy="-65.3471" rx="50.5427" ry="18"/>
<text text-anchor="middle" x="542" y="-61.6471" font-family="Times,serif" font-size="14.00">Cordinator</text>
</g>
<!-- b1&#45;&gt;c -->
<g id="edge1" class="edge"><title>b1&#45;&gt;c</title>
<path fill="none" stroke="black" d="M276.883,-47.7324C285.223,-33.3517 299.178,-14.0386 317.652,-5.34707 333.739,2.22107 461.111,1.16815 477.652,-5.34707 495.541,-12.3933 511.396,-27.0164 522.891,-40.0617"/>
<polygon fill="black" stroke="black" points="520.356,-42.4862 529.464,-47.8985 525.719,-37.9876 520.356,-42.4862"/>
<text text-anchor="middle" x="397.652" y="-9.14707" font-family="Times,serif" font-size="14.00">register</text>
</g>
<!-- b1&#45;&gt;c -->
<g id="edge6" class="edge"><title>b1&#45;&gt;c</title>
<path fill="none" stroke="black" d="M294.716,-77.9193C300.659,-80.169 307.019,-82.1697 313.152,-83.3471 350.034,-90.4277 444.997,-88.8136 482.152,-83.3471 486.683,-82.6805 491.346,-81.7446 495.975,-80.6461"/>
<polygon fill="black" stroke="black" points="497.202,-83.9428 505.989,-78.0234 495.429,-77.1712 497.202,-83.9428"/>
<text text-anchor="middle" x="397.652" y="-93.1471" font-family="Times,serif" font-size="14.00">2. Transfer Client 1 &#45;&gt; 2</text>
</g>
<!-- b1&#45;&gt;c -->
<g id="edge11" class="edge"><title>b1&#45;&gt;c</title>
<path fill="none" stroke="black" d="M275.813,-83.1981C283.16,-97.5173 295.655,-116.616 313.152,-125.347 329.954,-133.731 464.808,-132.544 482.152,-125.347 498.985,-118.362 513.54,-104.09 524.08,-91.2172"/>
<polygon fill="black" stroke="black" points="527.05,-93.0986 530.411,-83.0509 521.518,-88.8099 527.05,-93.0986"/>
<text text-anchor="middle" x="397.652" y="-135.147" font-family="Times,serif" font-size="14.00">6. yes</text>
</g>
<!-- b1&#45;&gt;c -->
<g id="edge14" class="edge"><title>b1&#45;&gt;c</title>
<path fill="none" stroke="black" d="M282.033,-82.1883C290.145,-90.5779 301.114,-99.868 313.152,-104.347 330.751,-110.895 464.152,-109.694 482.152,-104.347 493.53,-100.967 504.764,-94.6639 514.373,-88.0953"/>
<polygon fill="black" stroke="black" points="516.653,-90.7657 522.698,-82.0646 512.546,-85.0968 516.653,-90.7657"/>
<text text-anchor="middle" x="397.652" y="-114.147" font-family="Times,serif" font-size="14.00">8. ok/error</text>
</g>
<!-- b2 -->
<g id="node2" class="node"><title>b2</title>
<ellipse fill="none" stroke="black" cx="831" cy="-65.3471" rx="36.096" ry="18"/>
<text text-anchor="middle" x="831" y="-61.6471" font-family="Times,serif" font-size="14.00">Bank 2</text>
</g>
<!-- b2&#45;&gt;c -->
<g id="edge2" class="edge"><title>b2&#45;&gt;c</title>
<path fill="none" stroke="black" d="M816.759,-82.1922C808.537,-90.5829 797.436,-99.8729 785.302,-104.347 766.119,-111.42 620.887,-110.21 601.302,-104.347 590.004,-100.965 578.866,-94.6612 569.346,-88.0928"/>
<polygon fill="black" stroke="black" points="571.239,-85.1408 561.101,-82.0624 567.107,-90.7909 571.239,-85.1408"/>
<text text-anchor="middle" x="693.302" y="-114.147" font-family="Times,serif" font-size="14.00">register</text>
</g>
<!-- b2&#45;&gt;c -->
<g id="edge9" class="edge"><title>b2&#45;&gt;c</title>
<path fill="none" stroke="black" d="M811.965,-49.8281C799.948,-41.0591 783.651,-30.9547 767.302,-26.3471 751.474,-21.8865 635.299,-22.54 619.302,-26.3471 603.975,-29.9945 588.24,-37.1927 575.001,-44.4228"/>
<polygon fill="black" stroke="black" points="573.231,-41.4029 566.27,-49.39 576.693,-47.4872 573.231,-41.4029"/>
<text text-anchor="middle" x="693.302" y="-30.1471" font-family="Times,serif" font-size="14.00">4. in Bank 2!</text>
</g>
<!-- c1 -->
<g id="node3" class="node"><title>c1</title>
<ellipse fill="none" stroke="black" cx="39" cy="-65.3471" rx="39.4691" ry="18"/>
<text text-anchor="middle" x="39" y="-61.6471" font-family="Times,serif" font-size="14.00">Client 1</text>
</g>
<!-- c1&#45;&gt;b1 -->
<g id="edge3" class="edge"><title>c1&#45;&gt;b1</title>
<path fill="none" stroke="black" d="M73.3472,-56.4764C101.076,-50.3701 141.127,-43.9274 176.302,-47.3471 192.308,-48.9032 209.667,-51.953 224.931,-55.1064"/>
<polygon fill="black" stroke="black" points="224.611,-58.617 235.122,-57.289 226.077,-51.7722 224.611,-58.617"/>
<text text-anchor="middle" x="154.802" y="-51.1471" font-family="Times,serif" font-size="14.00">register</text>
</g>
<!-- c1&#45;&gt;b1 -->
<g id="edge5" class="edge"><title>c1&#45;&gt;b1</title>
<path fill="none" stroke="black" d="M78.3665,-65.3471C118.095,-65.3471 179.431,-65.3471 221.524,-65.3471"/>
<polygon fill="black" stroke="black" points="221.786,-68.8472 231.786,-65.3471 221.786,-61.8472 221.786,-68.8472"/>
<text text-anchor="middle" x="154.802" y="-72.1471" font-family="Times,serif" font-size="14.00">1. Transfer Client 1 &#45;&gt; 2</text>
</g>
<!-- c2 -->
<g id="node4" class="node"><title>c2</title>
<ellipse fill="none" stroke="black" cx="831" cy="-153.347" rx="39.4691" ry="18"/>
<text text-anchor="middle" x="831" y="-149.647" font-family="Times,serif" font-size="14.00">Client 2</text>
</g>
<!-- c2&#45;&gt;b2 -->
<g id="edge4" class="edge"><title>c2&#45;&gt;b2</title>
<path fill="none" stroke="black" d="M831,-134.944C831,-123.093 831,-107.164 831,-93.6388"/>
<polygon fill="black" stroke="black" points="834.5,-93.431 831,-83.4311 827.5,-93.4311 834.5,-93.431"/>
<text text-anchor="middle" x="852.5" y="-105.647" font-family="Times,serif" font-size="14.00">register</text>
</g>
<!-- c&#45;&gt;b1 -->
<g id="edge7" class="edge"><title>c&#45;&gt;b1</title>
<path fill="none" stroke="black" d="M521.336,-48.8164C509.341,-40.2929 493.505,-30.776 477.652,-26.3471 460.53,-21.5634 334.454,-20.5374 317.652,-26.3471 308.066,-29.6616 298.923,-35.6753 291.155,-42.0038"/>
<polygon fill="black" stroke="black" points="288.522,-39.6577 283.31,-48.8818 293.137,-44.9213 288.522,-39.6577"/>
<text text-anchor="middle" x="397.652" y="-30.1471" font-family="Times,serif" font-size="14.00">3. whereis Client 2</text>
</g>
<!-- c&#45;&gt;b1 -->
<g id="edge10" class="edge"><title>c&#45;&gt;b1</title>
<path fill="none" stroke="black" d="M491.482,-65.3471C440.849,-65.3471 363.555,-65.3471 314.422,-65.3471"/>
<polygon fill="black" stroke="black" points="314.385,-61.8472 304.385,-65.3471 314.385,-68.8472 314.385,-61.8472"/>
<text text-anchor="middle" x="397.652" y="-72.1471" font-family="Times,serif" font-size="14.00">5. has Client 1 enough money?</text>
</g>
<!-- c&#45;&gt;b1 -->
<g id="edge12" class="edge"><title>c&#45;&gt;b1</title>
<path fill="none" stroke="black" d="M504.935,-53.1261C496.092,-50.7288 486.616,-48.5772 477.652,-47.3471 442.427,-42.513 352.672,-41.1953 317.652,-47.3471 313.487,-48.0788 309.21,-49.1312 304.998,-50.3649"/>
<polygon fill="black" stroke="black" points="303.79,-47.0775 295.37,-53.5073 305.962,-53.7321 303.79,-47.0775"/>
<text text-anchor="middle" x="397.652" y="-51.1471" font-family="Times,serif" font-size="14.00">7. Minus on Client 1 account</text>
</g>
<!-- c&#45;&gt;b2 -->
<g id="edge8" class="edge"><title>c&#45;&gt;b2</title>
<path fill="none" stroke="black" d="M577.992,-78.1139C585.596,-80.2883 593.639,-82.2097 601.302,-83.3471 641.747,-89.3502 745.13,-90.9734 785.302,-83.3471 788.485,-82.7427 791.73,-81.9212 794.949,-80.9602"/>
<polygon fill="black" stroke="black" points="796.093,-84.2679 804.436,-77.737 793.842,-77.64 796.093,-84.2679"/>
<text text-anchor="middle" x="693.302" y="-93.1471" font-family="Times,serif" font-size="14.00">3. whereis Client 2</text>
</g>
<!-- c&#45;&gt;b2 -->
<g id="edge13" class="edge"><title>c&#45;&gt;b2</title>
<path fill="none" stroke="black" d="M581.816,-54.2425C593.769,-51.4075 606.981,-48.7626 619.302,-47.3471 651.976,-43.5931 734.724,-42.8325 767.302,-47.3471 775.225,-48.4451 783.549,-50.2769 791.471,-52.3621"/>
<polygon fill="black" stroke="black" points="790.654,-55.7681 801.228,-55.1029 792.547,-49.0289 790.654,-55.7681"/>
<text text-anchor="middle" x="693.302" y="-51.1471" font-family="Times,serif" font-size="14.00">7. Plus on Client 2 account</text>
</g>
<!-- c&#45;&gt;b2 -->
<g id="edge15" class="edge"><title>c&#45;&gt;b2</title>
<path fill="none" stroke="black" d="M592.671,-65.3471C646.851,-65.3471 732.037,-65.3471 784.541,-65.3471"/>
<polygon fill="black" stroke="black" points="784.587,-68.8472 794.587,-65.3471 784.587,-61.8472 784.587,-68.8472"/>
<text text-anchor="middle" x="693.302" y="-72.1471" font-family="Times,serif" font-size="14.00">(9.) Rollback on Client 2 account</text>
</g>
</g>
</svg>
